<svg width="48" height="10" viewBox="0 0 48 10" fill="none" xmlns="http://www.w3.org/2000/svg">
<path d="M0.839489 9H6.58381V7.87074H2.65483V7.80682L4.3892 5.99148C5.98722 4.37642 6.44318 3.60511 6.44318 2.62926C6.44318 1.22727 5.30114 0.153409 3.65625 0.153409C2.02415 0.153409 0.830966 1.21023 0.830966 2.80398H2.08807C2.08381 1.86648 2.68892 1.25284 3.63068 1.25284C4.51705 1.25284 5.19034 1.7983 5.19034 2.66761C5.19034 3.43892 4.73011 3.9929 3.79261 4.9858L0.839489 8.04545V9ZM11.4281 7.29545H15.5659V9H16.823V7.29545H17.9778V6.17898H16.823V0.272727H15.1994L11.4281 6.23011V7.29545ZM15.5744 6.17898H12.8088V6.1108L15.5063 1.84091H15.5744V6.17898ZM23.9195 3.54545C24.3839 3.54545 24.7717 3.16619 24.7717 2.69318C24.7717 2.22869 24.3839 1.84517 23.9195 1.84517C23.4507 1.84517 23.0672 2.22869 23.0672 2.69318C23.0672 3.16619 23.4507 3.54545 23.9195 3.54545ZM23.9195 7.91761C24.3839 7.91761 24.7717 7.53835 24.7717 7.06534C24.7717 6.60085 24.3839 6.21733 23.9195 6.21733C23.4507 6.21733 23.0672 6.60085 23.0672 7.06534C23.0672 7.53835 23.4507 7.91761 23.9195 7.91761ZM29.8781 7.29545H34.0159V9H35.273V7.29545H36.4278V6.17898H35.273V0.272727H33.6494L29.8781 6.23011V7.29545ZM34.0244 6.17898H31.2588V6.1108L33.9562 1.84091H34.0244V6.17898ZM44.3936 9.11932C46.1493 9.11932 47.4021 7.87926 47.3979 6.17898C47.4021 4.49148 46.226 3.2642 44.6365 3.2642C43.9888 3.2642 43.3879 3.51136 43.047 3.84375H42.9959L43.2729 1.40199H46.976V0.272727H42.1777L41.6876 4.67045L42.8936 4.84943C43.2217 4.5554 43.8098 4.35511 44.3382 4.35511C45.3737 4.36364 46.1237 5.1392 46.1237 6.20455C46.1237 7.25284 45.395 8.01136 44.3936 8.01136C43.5499 8.01136 42.8808 7.47443 42.8126 6.72443H41.5342C41.5854 8.11364 42.7913 9.11932 44.3936 9.11932Z" fill="white"/>
</svg>
