<svg width="37" height="10" viewBox="0 0 37 10" fill="none" xmlns="http://www.w3.org/2000/svg">
<path d="M3.88636 9.11932C5.71023 9.13636 6.92045 7.82386 6.91619 6.14915C6.92045 4.47869 5.70597 3.28125 4.19318 3.28125C3.27273 3.28125 2.47585 3.72443 2.02841 4.46165H1.96449C1.96875 2.45881 2.71875 1.28693 3.99716 1.28693C4.83665 1.28693 5.36506 1.79403 5.54403 2.53977H6.84375C6.64347 1.13778 5.55682 0.132102 3.99716 0.132102C1.96875 0.132102 0.703125 1.875 0.703125 4.9304C0.703125 8.14347 2.33523 9.10653 3.88636 9.11932ZM3.8821 8.01136C2.8679 8.01136 2.12642 7.15909 2.12642 6.17898C2.13068 5.20312 2.90625 4.35085 3.91193 4.35085C4.90909 4.35085 5.64205 5.15625 5.63778 6.16619C5.64205 7.19744 4.87926 8.01136 3.8821 8.01136ZM12.9249 3.54545C13.3894 3.54545 13.7772 3.16619 13.7772 2.69318C13.7772 2.22869 13.3894 1.84517 12.9249 1.84517C12.4562 1.84517 12.0727 2.22869 12.0727 2.69318C12.0727 3.16619 12.4562 3.54545 12.9249 3.54545ZM12.9249 7.91761C13.3894 7.91761 13.7772 7.53835 13.7772 7.06534C13.7772 6.60085 13.3894 6.21733 12.9249 6.21733C12.4562 6.21733 12.0727 6.60085 12.0727 7.06534C12.0727 7.53835 12.4562 7.91761 12.9249 7.91761ZM22.1052 9.11932C23.8864 9.11932 25.1947 8.05398 25.1904 6.60511C25.1947 5.50142 24.5256 4.70881 23.3665 4.52983V4.46165C24.2785 4.22727 24.8708 3.51136 24.8665 2.53125C24.8708 1.24858 23.8183 0.153409 22.1393 0.153409C20.537 0.153409 19.2501 1.12074 19.2075 2.53977H20.4816C20.5114 1.73864 21.2657 1.25284 22.1222 1.25284C23.0129 1.25284 23.5967 1.79403 23.5924 2.59943C23.5967 3.44318 22.9191 3.99716 21.9518 3.99716H21.2146V5.07102H21.9518C23.162 5.07102 23.8609 5.68466 23.8609 6.5625C23.8609 7.41051 23.1237 7.9858 22.0967 7.9858C21.1506 7.9858 20.4134 7.5 20.3623 6.72443H19.0242C19.0796 8.14773 20.341 9.11932 22.1052 9.11932ZM33.4396 9.14489C35.4552 9.14489 36.6356 7.5 36.6356 4.64062C36.6356 1.80256 35.4381 0.153409 33.4396 0.153409C31.4367 0.153409 30.2435 1.7983 30.2393 4.64062C30.2393 7.49574 31.4197 9.14062 33.4396 9.14489ZM33.4396 8.0071C32.2592 8.0071 31.5475 6.82244 31.5475 4.64062C31.5518 2.46733 32.2634 1.26989 33.4396 1.26989C34.6114 1.26989 35.3273 2.46733 35.3273 4.64062C35.3273 6.82244 34.6157 8.0071 33.4396 8.0071Z" fill="white"/>
</svg>
